<mxfile host="app.diagrams.net" modified="2024-04-03T10:39:57.047Z" agent="Mozilla/5.0 (Macintosh; Intel Mac OS X 10_15_7) AppleWebKit/605.1.15 (KHTML, like Gecko) Version/16.1 Safari/605.1.15" version="24.2.1" etag="_mpUhYSsKIp2wlE4we05" type="github">
  <diagram name="Page-1" id="gH__5MVgp4ZEMrh4wsJA">
    <mxGraphModel>
      <root>
        <mxCell id="0" />
        <mxCell id="1" parent="0" />
      </root>
    </mxGraphModel>
  </diagram>
</mxfile>
